<?xml version="1.0" encoding="UTF-8"?> <svg xmlns="http://www.w3.org/2000/svg" viewBox="0 0 851.03 675.23"><defs><style>.b{mix-blend-mode:overlay;opacity:.3;}.c,.d,.e,.f{fill:#005bea;}.g,.h,.i{fill:#fff;}.j{fill:#80b6f1;}.k,.l,.m{fill:#cee7fd;}.d,.n,.h,.l,.o,.e,.p,.m,.i{stroke:#005bea;}.d,.n,.h,.l,.e{fill-rule:evenodd;stroke-miterlimit:10;stroke-width:4px;}.n,.o{fill:#3199f0;}.o,.p,.m,.i{stroke-linecap:round;stroke-linejoin:round;stroke-width:3px;}.e,.f{opacity:.5;}.p{fill:#3fa9f5;}.q{isolation:isolate;}</style></defs><g class="q"><g id="a"><path class="k" d="M3.88,509.17l131.64-77.07c5.17-2.99,13.55-2.98,18.73,.01l17.83,10.39c5.18,2.99,5.18,7.83,.02,10.82l-131.64,77.06c-5.17,2.99-13.55,2.98-18.74,0l-17.83-10.39c-5.18-2.98-5.18-7.83,0-10.81Z"></path><g><path class="g" d="M139.14,270.82c4.71-4.72,12.36-4.72,17.08,0,4.72,4.72,4.72,12.36,0,17.08-4.71,4.72-12.36,4.72-17.08,0-4.72-4.72-4.72-12.36,0-17.08Z"></path><path class="k" d="M152.25,283.93c4.03-4.03,4.59-10.18,1.72-14.84,.79,.48,1.56,1.04,2.25,1.73,4.72,4.72,4.72,12.36,0,17.08-4.71,4.72-12.36,4.72-17.08,0-.69-.69-1.24-1.45-1.73-2.24,4.65,2.86,10.81,2.31,14.85-1.73Z"></path><path class="c" d="M147.68,292.81c-3.59,0-6.97-1.4-9.51-3.94-2.54-2.54-3.94-5.92-3.94-9.5s1.4-6.96,3.94-9.5c2.54-2.54,5.91-3.94,9.5-3.94h0c3.59,0,6.97,1.4,9.51,3.94,2.54,2.54,3.94,5.91,3.94,9.5s-1.4,6.96-3.94,9.51c-2.54,2.54-5.91,3.94-9.5,3.94Zm0-24.16h0c-2.86,0-5.55,1.12-7.57,3.14h0c-2.02,2.02-3.14,4.71-3.14,7.57s1.12,5.55,3.14,7.57c2.02,2.03,4.71,3.14,7.57,3.14s5.55-1.12,7.57-3.14c2.03-2.03,3.14-4.72,3.14-7.58s-1.12-5.55-3.14-7.57c-2.02-2.03-4.71-3.14-7.58-3.14Zm-8.54,2.18h0Z"></path></g><g><path class="g" d="M140.14,270.82c4.71-4.72,12.36-4.72,17.08,0,4.72,4.72,4.72,12.36,0,17.08-4.71,4.72-12.36,4.72-17.08,0-4.72-4.72-4.72-12.36,0-17.08Z"></path><path class="k" d="M153.25,283.93c4.03-4.03,4.59-10.18,1.72-14.84,.79,.48,1.56,1.04,2.25,1.73,4.72,4.72,4.72,12.36,0,17.08-4.71,4.72-12.36,4.72-17.08,0-.69-.69-1.24-1.45-1.73-2.24,4.65,2.86,10.81,2.31,14.85-1.73Z"></path><path class="c" d="M148.68,292.81c-3.59,0-6.97-1.4-9.51-3.94-2.54-2.54-3.94-5.92-3.94-9.5s1.4-6.96,3.94-9.5c2.54-2.54,5.91-3.94,9.5-3.94h0c3.59,0,6.97,1.4,9.51,3.94,2.54,2.54,3.94,5.91,3.94,9.5s-1.4,6.96-3.94,9.51c-2.54,2.54-5.91,3.94-9.5,3.94Zm0-24.16h0c-2.86,0-5.55,1.12-7.57,3.14h0c-2.02,2.02-3.14,4.71-3.14,7.57s1.12,5.55,3.14,7.57c2.02,2.03,4.71,3.14,7.57,3.14s5.55-1.12,7.57-3.14c2.03-2.03,3.14-4.72,3.14-7.58s-1.12-5.55-3.14-7.57c-2.02-2.03-4.71-3.14-7.58-3.14Zm-8.54,2.18h0Z"></path></g><g><path class="g" d="M596.97,505.01c4.71-4.72,12.36-4.72,17.08,0,4.72,4.72,4.72,12.36,0,17.08-4.71,4.72-12.36,4.72-17.08,0-4.72-4.72-4.72-12.36,0-17.08Z"></path><path class="k" d="M610.09,518.11c4.03-4.03,4.59-10.18,1.72-14.84,.79,.48,1.56,1.04,2.25,1.73,4.72,4.72,4.72,12.36,0,17.08-4.71,4.72-12.36,4.72-17.08,0-.69-.69-1.24-1.45-1.73-2.24,4.65,2.86,10.81,2.31,14.85-1.73Z"></path><path class="c" d="M605.51,526.99c-3.59,0-6.97-1.4-9.51-3.94-2.54-2.54-3.94-5.92-3.94-9.5s1.4-6.96,3.94-9.5c2.54-2.54,5.91-3.94,9.5-3.94h0c3.59,0,6.97,1.4,9.51,3.94,2.54,2.54,3.94,5.91,3.94,9.5s-1.4,6.96-3.94,9.51c-2.54,2.54-5.91,3.94-9.5,3.94Zm0-24.16h0c-2.86,0-5.55,1.12-7.57,3.14h0c-2.02,2.02-3.14,4.71-3.14,7.57s1.12,5.55,3.14,7.57c2.02,2.03,4.71,3.14,7.57,3.14s5.55-1.12,7.57-3.14c2.03-2.03,3.14-4.72,3.14-7.58s-1.12-5.55-3.14-7.57c-2.02-2.03-4.71-3.14-7.58-3.14Zm-8.54,2.18h0Z"></path></g><path class="k" d="M674.92,411.77c-8.52,4.91-22.35,4.91-30.88-.01l-193.33-93.91c-8.54-4.93-8.55-12.92-.02-17.83l169.72-98.1c8.51-4.93,22.33-4.92,30.88,0l193.34,93.91c8.53,4.92,8.53,12.9,.01,17.82l-169.72,98.11Z"></path><g><path class="n" d="M259,340.02l204.84-118.23c2.53-1.2,4.42-.57,6.95,.69l183.38,105.9c3.16,2.05,5.05,4.17,6.94,7.39l-204.84,118.21c-1.89-3.25-3.78-5.34-6.63-7.39l-183.7-105.9c-2.21-1.26-4.42-1.89-6.94-.66Z"></path><path class="e" d="M259,340.02l204.84-118.23c2.53-1.2,4.42-.57,6.95,.69l183.38,105.9c3.16,2.05,5.05,4.17,6.94,7.39l-204.84,118.21c-1.89-3.25-3.78-5.34-6.63-7.39l-183.7-105.9c-2.21-1.26-4.42-1.89-6.94-.66Z"></path><path class="h" d="M256.16,346.4c0-3.16,.95-5.37,2.84-6.38,1.89-1.04,4.42-.92,6.94,.66l183.7,105.9c2.52,1.57,5.05,4.29,6.63,7.39v.03c1.89,3.1,3.16,6.6,3.16,9.75v62.65c0,3.16-1.26,5.37-3.16,6.41-1.57,1.04-4.1,.88-6.63-.69l-183.7-105.86c-5.36-3.19-9.78-10.86-9.78-17.17v-62.69Z"></path><polygon class="l" points="285.2 408.2 267.52 397.97 267.52 377.55 285.2 387.78 285.2 408.2"></polygon><path class="n" d="M456.27,453.97l204.84-118.21v.03c1.89,3.34,2.84,5.9,2.84,9.75v62.65c0,2.75-.32,4.77-2.84,6.41l-204.84,118.2c2.53-1.64,2.84-3.66,3.16-6.41v-62.65c-.32-3.85-1.26-6.41-3.16-9.75v-.03Z"></path><polygon class="l" points="314.55 425.15 296.88 414.95 296.88 394.5 314.55 404.73 314.55 425.15"></polygon><path class="n" d="M259,231.38l204.84-118.17c2.53-1.26,4.42-.6,6.95,.66l183.38,105.89c3.16,2.05,5.05,4.13,6.94,7.39l-204.84,118.2c-1.89-3.25-3.78-5.33-6.63-7.38l-183.7-105.89c-2.21-1.27-4.42-1.89-6.94-.7Z"></path><path class="e" d="M259,230.76l204.84-118.17c2.53-1.26,4.42-.6,6.95,.66l183.38,105.89c3.16,2.05,5.05,4.13,6.94,7.39l-204.84,118.2c-1.89-3.25-3.78-5.33-6.63-7.38l-183.7-105.89c-2.21-1.27-4.42-1.89-6.94-.7Z"></path><path class="h" d="M256.16,237.82c0-3.15,.95-5.4,2.84-6.44,1.89-1.01,4.42-.88,6.94,.7l183.7,105.89c2.52,1.58,5.05,4.29,6.63,7.38h0c1.89,3.13,3.16,6.63,3.16,9.79v62.65c0,3.15-1.26,5.37-3.16,6.41-1.57,1.04-4.1,.91-6.63-.67l-183.7-105.92c-2.52-1.58-5.05-4.26-6.94-7.39h0c-1.89-3.09-2.84-6.6-2.84-9.75v-62.65Z"></path><polygon class="l" points="285.2 299.59 267.52 289.39 267.52 268.94 285.2 279.17 285.2 299.59"></polygon><path class="n" d="M456.27,345.35l204.84-118.2h0c1.89,3.38,2.84,5.93,2.84,9.75v62.68c0,2.75-.32,4.77-2.84,6.41l-204.84,118.21c2.53-1.64,2.84-3.66,3.16-6.41v-62.65c-.32-3.85-1.26-6.41-3.16-9.79h0Z"></path><polygon class="l" points="314.55 316.54 296.88 306.34 296.88 285.89 314.55 296.12 314.55 316.54"></polygon><path class="l" d="M259,120.87L463.84,2.64c2.53-1.2,4.42-.57,6.95,.69l183.38,105.89c3.16,2.05,5.05,4.17,6.94,7.39l-204.84,118.2c-1.89-3.25-3.78-5.33-6.63-7.38l-183.7-105.9c-2.21-1.26-4.42-1.89-6.94-.66Z"></path><path class="h" d="M256.16,127.28c0-3.16,.95-5.4,2.84-6.41,1.89-1.04,4.42-.88,6.94,.66l183.7,105.9c2.52,1.58,5.05,4.29,6.63,7.38v.03c1.89,3.09,3.16,6.6,3.16,9.76v62.65c0,3.16-1.26,5.37-3.16,6.41-1.57,1.04-4.1,.88-6.63-.66l-183.7-105.89c-2.52-1.58-5.05-4.3-6.94-7.42h0c-1.89-3.09-2.84-6.6-2.84-9.75v-62.65Z"></path><polygon class="l" points="285.2 189.05 267.52 178.85 267.52 158.4 285.2 168.63 285.2 189.05"></polygon><path class="n" d="M456.27,234.82l204.84-118.2v.03c1.89,3.34,2.84,5.9,2.84,9.75v62.65c0,2.75-.32,4.77-2.84,6.41l-204.84,118.2c2.53-1.64,2.84-3.66,3.16-6.41v-62.65c-.32-3.82-1.26-6.41-3.16-9.76v-.03Z"></path><polygon class="l" points="314.55 206.03 296.88 195.81 296.88 175.39 314.55 185.58 314.55 206.03"></polygon><path class="d" d="M441.43,269.28c1.26,0,2.52-.66,3.16-1.86,.95-1.77,.31-4.04-1.26-5.05l-110.47-63.76c-1.58-1.01-4.1-.41-5.05,1.36-.95,1.8-.32,4.04,1.26,5.08l110.47,63.73c.63,.35,1.26,.5,1.89,.5Z"></path><path class="d" d="M441.43,379.82c1.26,0,2.52-.66,3.16-1.86,.95-1.77,.31-4.04-1.26-5.05l-110.47-63.73c-1.58-1.04-4.1-.44-5.05,1.33-.95,1.8-.32,4.07,1.26,5.08l110.47,63.72c.63,.35,1.26,.5,1.89,.5Z"></path><path class="d" d="M441.43,488.43c1.26,0,2.52-.66,3.16-1.86,.95-1.77,.31-4.04-1.26-5.05l-110.47-63.76c-1.58-1.01-4.1-.41-5.05,1.39-.95,1.77-.32,4.04,1.26,5.05l110.47,63.73c.63,.35,1.26,.5,1.89,.5Z"></path></g><path class="k" d="M169.63,543.96c0-3.62,2.38-7.23,7.15-9.98l16.09-9.29,.04,.07c.26-.16,.44-.35,.71-.5,9.53-5.5,25-5.5,34.55,.02,4.76,2.74,7.16,6.35,7.16,9.96,0,3.61-2.37,7.22-7.15,9.97l-16.62,9.6v-.02c-.09,.05-.14,.1-.22,.15-9.53,5.51-24.99,5.52-34.55,0-4.76-2.75-7.15-6.35-7.16-9.96Zm50.12,34.76c9.55,5.52,25.01,5.52,34.55,0,.07-.05,.13-.1,.21-.14h.01l50.32-29.03c4.78-2.75,7.16-6.36,7.15-9.97,0-3.61-2.39-7.22-7.16-9.96-9.55-5.53-25.02-5.53-34.55-.02-.28,.16-.46,.34-.71,.5l-.04-.07-49.78,28.74c-4.78,2.76-7.15,6.37-7.15,9.98,0,3.61,2.39,7.21,7.16,9.96Zm42.95,24.8c9.55,5.52,25.02,5.52,34.55,.01,.08-.05,.13-.11,.21-.15v.02l33.48-19.32c4.78-2.75,7.16-6.36,7.15-9.97,0-3.61-2.4-7.23-7.16-9.97-9.55-5.51-25.02-5.52-34.55-.02-.28,.16-.46,.34-.71,.51l-.04-.07-32.94,19.01c-4.76,2.76-7.15,6.38-7.15,9.99,0,3.6,2.4,7.21,7.16,9.95Z"></path><g><g><path class="g" d="M169.63,513.82c0-3.62,2.37-7.23,7.15-9.99,9.53-5.49,25-5.5,34.55,.02,4.77,2.74,7.15,6.35,7.15,9.96h0v30.15h0c0,3.62-2.37,7.23-7.15,9.98-9.53,5.51-25,5.51-34.55,0-4.77-2.76-7.16-6.38-7.16-9.99v-30.12Z"></path><path class="k" d="M176.79,523.77c9.55,5.52,25.02,5.53,34.55,.02,4.78-2.75,7.15-6.37,7.14-9.98h0v30.15h0c0,3.62-2.37,7.23-7.15,9.98-9.53,5.51-25,5.51-34.55,0-4.77-2.76-7.16-6.38-7.16-9.99v-30.12c0,3.6,2.39,7.21,7.16,9.95Z"></path><path class="c" d="M194.08,559.41c-6.51,0-13.01-1.43-17.97-4.29-5.06-2.93-7.85-6.9-7.84-11.18v-30.12c0-4.29,2.77-8.25,7.83-11.17,9.91-5.71,26.02-5.7,35.92,.02,4.99,2.87,7.76,6.77,7.83,10.99,0,.05,0,.1,0,.16v30.15c0,4.29-2.78,8.25-7.83,11.16-4.94,2.86-11.44,4.29-17.94,4.29Zm-.05-58.35c-6,0-12,1.32-16.57,3.95-4.17,2.41-6.47,5.54-6.46,8.8h0v30.12c0,3.26,2.29,6.39,6.48,8.81,9.15,5.29,24.04,5.29,33.18,0,4.17-2.4,6.47-5.53,6.47-8.79v-30s0-.1,0-.15c0-3.26-2.3-6.38-6.47-8.78-4.58-2.65-10.6-3.97-16.62-3.97Z"></path></g><g><path class="j" d="M212.59,499.71c0-3.61,2.38-7.23,7.15-9.99,9.53-5.49,25.01-5.49,34.55,.03,4.77,2.74,7.16,6.36,7.16,9.97h0v69.05h0c.01,3.62-2.37,7.23-7.15,9.98-9.53,5.51-25,5.51-34.55,0-4.78-2.77-7.16-6.38-7.16-9.99v-69.03Z"></path><path class="b" d="M219.75,509.67c9.55,5.52,25.02,5.52,34.55,.02,4.78-2.75,7.16-6.37,7.15-9.97h0v69.05h0c.01,3.62-2.37,7.23-7.15,9.98-9.53,5.51-25,5.51-34.55,0-4.78-2.77-7.16-6.38-7.16-9.99v-69.03c0,3.61,2.39,7.22,7.16,9.96Z"></path><path class="c" d="M237.04,584.21c-6.51,0-13.02-1.43-17.97-4.3-5.06-2.93-7.84-6.9-7.84-11.17v-69.03c0-4.28,2.77-8.25,7.83-11.18,9.91-5.71,26.02-5.7,35.92,.03,5,2.88,7.78,6.79,7.84,11.02,0,.04,0,.08,0,.12v69.05s0,.08,0,.12c-.04,4.24-2.81,8.16-7.83,11.04-4.94,2.86-11.44,4.29-17.94,4.29Zm-.06-97.26c-6,0-11.99,1.32-16.56,3.95-4.17,2.42-6.47,5.55-6.46,8.81h0v69.03c0,3.26,2.3,6.39,6.48,8.81,9.15,5.29,24.04,5.3,33.18,0,4.18-2.41,6.47-5.52,6.46-8.78,0-.04,0-.08,0-.12v-68.83s0-.08,0-.12c0-3.27-2.3-6.39-6.47-8.79-4.58-2.65-10.61-3.98-16.63-3.98Z"></path></g><g><path class="g" d="M255.54,543.97c0-3.62,2.38-7.23,7.15-9.99,9.53-5.5,25-5.49,34.55,.02,4.76,2.75,7.16,6.36,7.16,9.97h0v49.59h0c0,3.62-2.37,7.23-7.15,9.98-9.53,5.51-25,5.51-34.55,0-4.78-2.76-7.16-6.38-7.16-9.99v-49.58Z"></path><path class="k" d="M262.7,553.92c9.55,5.53,25.02,5.53,34.55,.02,4.78-2.75,7.16-6.36,7.15-9.97h0v49.59h0c0,3.62-2.37,7.23-7.15,9.98-9.53,5.51-25,5.51-34.55,0-4.78-2.76-7.16-6.38-7.16-9.99v-49.58c0,3.6,2.39,7.21,7.15,9.95Z"></path><path class="c" d="M280,609.01c-6.51,0-13.02-1.43-17.97-4.3-5.06-2.92-7.84-6.89-7.84-11.17v-49.57c-.01-4.28,2.77-8.25,7.82-11.18,9.9-5.71,26.01-5.7,35.92,.02,5.05,2.91,7.84,6.87,7.84,11.14h0v49.61c0,4.29-2.78,8.25-7.83,11.16-4.94,2.86-11.44,4.29-17.94,4.29Zm-.06-77.8c-6,0-12,1.32-16.56,3.95-4.17,2.42-6.47,5.55-6.46,8.81h0v49.58c0,3.26,2.31,6.39,6.48,8.81,9.16,5.3,24.04,5.3,33.18,0,4.17-2.41,6.47-5.52,6.47-8.78v-49.61c0-3.26-2.3-6.38-6.48-8.79-4.59-2.65-10.61-3.97-16.63-3.97Z"></path></g></g><g><path class="i" d="M486.1,561.97c46.36,0,53.14-28.93,53.14-28.93,0,0,0,109.8,0,110.02,0,.11,0,.2-.01,.29-.13,7.75-5.3,15.48-15.55,21.4-20.75,11.98-54.4,11.98-75.15,0-10.31-5.95-15.49-13.74-15.56-21.53h0c0-.11,0-.21,0-.31,0-5.24,0-110.19,0-110.19,0,0,6.78,29.26,53.13,29.26Z"></path><g><path class="m" d="M448.53,511.28c20.75-11.98,54.4-11.98,75.15,0,20.75,11.98,20.75,31.41,0,43.39-20.75,11.98-54.4,11.98-75.15,0-20.75-11.98-20.75-31.4,0-43.39Z"></path><path class="o" d="M453.98,549.81c17.79,9.84,46.74,9.84,64.53,0,17.79-9.84,17.79-25.85,0-35.68-17.79-9.84-46.74-9.84-64.53,0-17.79,9.84-17.79,25.85,0,35.68Z"></path></g><path class="i" d="M451.2,500.05c19.25-11.11,50.56-11.11,69.81,0,19.24,11.11,19.25,29.19,0,40.3-19.25,11.11-50.56,11.11-69.81,0-19.25-11.11-19.25-29.19,0-40.3Z"></path><path class="p" d="M492.27,498.89c7.33,4.15,9.82,9.84,9.82,12.05v8.54l-4.59,2.52-1.59-3.74v-5.05c0-1.45-1.02-3.21-2.27-3.93l-8.64-7.34c-1.25-.72-2.27-.14-2.27,1.31v5.05l-4.52,2.49-1.59-3.74-1.77-8.2s4.81-2.67,5.17-2.79c2.22-.75,6.96-.17,12.26,2.84Z"></path><path class="m" d="M487.6,501.39c7.33,4.15,9.82,9.84,9.82,12.05v8.54l-4.04-2.33v-5.05c0-1.45-1.02-3.21-2.27-3.93l-10.78-6.23c-1.25-.72-2.27-.14-2.27,1.31v5.05l-4.04-2.33v-8.54c0-2.21,6.26-2.69,13.59,1.46Z"></path><path class="m" d="M486.1,571.6c2.72,0,4.92,2.2,4.92,4.92v84.93c0,2.72-2.2,4.92-4.92,4.92s-4.92-2.2-4.92-4.92v-84.93c0-2.72,2.2-4.92,4.92-4.92Z"></path><path class="m" d="M465.21,567.64c2.72,1.02,4.92,4.05,4.92,6.77v84.93c0,2.72-2.2,4.1-4.92,3.08-2.72-1.02-4.92-4.05-4.92-6.77v-84.93c0-2.72,2.2-4.1,4.92-3.08Z"></path><path class="m" d="M444.85,559.33c2.72,1.38,4.92,4.71,4.92,7.43v84.93c0,2.72-2.2,3.8-4.92,2.42-2.72-1.38-4.92-4.71-4.92-7.43v-84.93c0-2.72,2.2-3.8,4.92-2.42Z"></path><path class="m" d="M507.12,567.77c2.79-.95,5.06,.49,5.06,3.21v84.93c0,2.72-2.26,5.69-5.06,6.64-2.79,.95-5.06-.49-5.06-3.21v-84.93c0-2.72,2.26-5.69,5.06-6.64Z"></path><path class="m" d="M527.48,559.59c2.79-1.24,5.06-.04,5.06,2.68v84.93c0,2.72-2.26,5.93-5.06,7.17-2.79,1.24-5.06,.04-5.06-2.68v-84.93c0-2.72,2.26-5.93,5.06-7.17Z"></path></g><g><polygon class="m" points="87.62 405.76 146 372.05 156.35 407.92 87.67 447.57 23.39 484.68 33.74 436.86 87.62 405.76"></polygon><polygon class="f" points="87.62 405.76 146 372.05 156.35 407.92 87.67 447.57 23.39 484.68 33.74 436.86 87.62 405.76"></polygon><polygon class="m" points="67.18 393.96 125.57 360.26 146 372.05 33.74 436.86 23.39 484.68 2.96 472.89 13.31 425.07 67.18 393.96"></polygon><polygon class="c" points="148.01 412.73 140.82 379.11 151.61 410.66 148.01 412.73"></polygon><polygon class="c" points="137.52 418.79 133.63 384.31 139.96 417.38 137.52 418.79"></polygon><polygon class="c" points="129.32 423.53 126.37 389.28 132.34 421.78 129.32 423.53"></polygon><polygon class="c" points="120.4 428.67 119.25 394.22 123.86 426.68 120.4 428.67"></polygon><polygon class="c" points="115.3 431.62 110.55 434.36 111.71 396.97 115.3 431.62"></polygon><polygon class="c" points="105.67 437.18 101.93 439.34 104.23 401.28 105.67 437.18"></polygon><polygon class="c" points="98.91 441.08 95.31 443.16 97.11 406.17 98.91 441.08"></polygon><polygon class="c" points="91.71 445.24 89.26 446.65 90.41 410.87 91.71 445.24"></polygon><polygon class="c" points="31.73 479.87 28.14 481.94 38.92 437.94 31.73 479.87"></polygon><polygon class="c" points="42.23 473.81 39.78 475.22 46.11 434.84 42.23 473.81"></polygon><polygon class="c" points="50.43 469.08 47.4 470.82 53.37 431.43 50.43 469.08"></polygon><polygon class="c" points="59.34 463.93 55.89 465.92 60.49 427.32 59.34 463.93"></polygon><polygon class="c" points="69.19 458.24 64.44 460.98 66.82 423.66 69.19 458.24"></polygon><polygon class="c" points="77.81 453.26 74.07 455.42 75.94 418.39 77.81 453.26"></polygon><polygon class="c" points="84.43 449.44 80.84 451.52 82.49 417.44 84.43 449.44"></polygon><polygon class="c" points="18.65 481.94 15.79 480.3 24.73 451.52 18.65 481.94"></polygon><polygon class="c" points="10.52 477.25 7 475.22 16.42 449.73 10.52 477.25"></polygon><polygon class="m" points="153.14 375.94 23.11 451.01 23.11 433.59 153.14 358.51 153.14 375.94"></polygon><polygon class="f" points="153.14 375.94 23.11 451.01 23.11 433.59 153.14 358.51 153.14 375.94"></polygon><polygon class="m" points="23.11 451.01 3.86 439.91 3.86 422.48 23.11 433.59 23.11 451.01"></polygon><polygon class="i" points="153.14 358.51 23.11 433.59 3.86 422.48 133.89 347.41 153.14 358.51"></polygon><path class="m" d="M91.61,387.96c0,1.6-1.06,3.21-3.18,4.44-4.24,2.45-11.12,2.45-15.37,0-2.12-1.23-3.18-2.83-3.18-4.44V179.05h21.74v208.91Z"></path><path class="i" d="M88.42,175.02c-4.31-2.49-11.32-2.49-15.63,0-4.31,2.49-4.31,6.54,0,9.02,4.31,2.49,11.32,2.49,15.63,0,4.31-2.49,4.31-6.54,0-9.02Z"></path></g></g></g></svg> 